<svg xmlns="http://www.w3.org/2000/svg" viewBox="0 0 425.33 425.33"><defs><style>.cls-1,.cls-3{fill:none;stroke:#621457;}.cls-1{stroke-miterlimit:10;stroke-width:9.33px;}.cls-2{fill:#fff;}.cls-3{stroke-linecap:round;stroke-linejoin:round;stroke-width:9.33px;}</style></defs><g id="Camada_2" data-name="Camada 2"><g id="Camada_1-2" data-name="Camada 1"><circle class="cls-1" cx="212.66" cy="212.66" r="208"/><path class="cls-2" d="M297.44,190.87V132.41a20.22,20.22,0,1,0-40.44,0v1.83a23.85,23.85,0,1,0-47.69-1c0,.32,0,.65,0,1V134a23.59,23.59,0,1,0-47.17-1c0,.33,0,.65,0,1v28.64a22.16,22.16,0,1,0-44.32,0v71.2A81.14,81.14,0,0,0,199,315h11.2a97.36,97.36,0,0,0,97.36-97.35A40.25,40.25,0,0,0,297.44,190.87Z"/><path class="cls-3" d="M140,213.77h0a22.16,22.16,0,0,1-22.15-22.16v-29A22.16,22.16,0,0,1,140,140.44h0a22.17,22.17,0,0,1,22.16,22.17v29A22.16,22.16,0,0,1,140,213.77Z"/><path class="cls-3" d="M307.52,217.59A40.48,40.48,0,0,0,267,177.11H170a7.92,7.92,0,0,0-7.91,7.92v5a35.12,35.12,0,0,0,35.13,35.13h48.12"/><line class="cls-3" x1="209.31" y1="134.24" x2="209.31" y2="177.11"/><path class="cls-3" d="M297.44,190.87V132.41a20.22,20.22,0,1,0-40.44,0v1.83a23.85,23.85,0,1,0-47.69-1c0,.32,0,.65,0,1V134a23.59,23.59,0,1,0-47.17-1c0,.33,0,.65,0,1v28.64a22.16,22.16,0,1,0-44.32,0v71.2A81.14,81.14,0,0,0,199,315h11.2a97.36,97.36,0,0,0,97.36-97.35A40.25,40.25,0,0,0,297.44,190.87Z"/><line class="cls-3" x1="257" y1="134.24" x2="257" y2="177.11"/><path class="cls-3" d="M244.83,225.12h0a39,39,0,0,0-39,39v11.59"/></g></g></svg>