<svg xmlns="http://www.w3.org/2000/svg" viewBox="0 0 425.33 425.33"><defs><style>.cls-1,.cls-3{fill:none;stroke:#621457;stroke-width:9.33px;}.cls-1{stroke-miterlimit:10;}.cls-2{fill:#fff;}.cls-3{stroke-linecap:round;stroke-linejoin:round;}</style></defs><g id="Camada_2" data-name="Camada 2"><g id="Camada_1-2" data-name="Camada 1"><circle class="cls-1" cx="212.66" cy="212.66" r="208"/><path class="cls-2" d="M294.4,228.49l-14,13.15V128.55c0-9.72-7.24-18.72-17.77-18.72a17.76,17.76,0,0,0-17.72,17.76v-16c0-10.22-7.58-20-19-20a18.93,18.93,0,0,0-19,18.87v-1a17.49,17.49,0,0,0-17.12-17.86h-.61a17.76,17.76,0,0,0-17.77,17.75v30a15.56,15.56,0,0,0-15.57-15.57c-9.34,0-15.57,7.65-15.57,16.2V267.76c0,36.42,29.34,66.44,65.78,66.44a103.34,103.34,0,0,0,76.66-34.08l53-57.53a9.76,9.76,0,0,0-.29-13.53h0A29.53,29.53,0,0,0,294.4,228.49Z"/><line class="cls-3" x1="169.43" y1="139.3" x2="169.43" y2="200.26"/><line class="cls-3" x1="204.97" y1="110.51" x2="204.97" y2="200.26"/><line class="cls-3" x1="242.89" y1="127.59" x2="242.89" y2="200.26"/><path class="cls-3" d="M278.43,241.64h-36a42.6,42.6,0,0,0-32.34,14.82"/><path class="cls-3" d="M292.43,228.49l-14,13.15V128.55c0-9.72-7.24-18.72-17.78-18.72a17.77,17.77,0,0,0-17.74,17.76v-16c0-10.22-7.57-20-19-20a19,19,0,0,0-19,19v-1.14a17.48,17.48,0,0,0-17.1-17.86h-.6a17.76,17.76,0,0,0-17.77,17.77h0v30a15.59,15.59,0,0,0-15.53-15.6c-9.33,0-15.57,7.66-15.57,16.21V267.76c0,36.42,29.34,66.44,65.78,66.44,35.6,0,57.08-12.39,76.66-34.08l53-57.53a9.74,9.74,0,0,0-.29-13.53h0A29.5,29.5,0,0,0,292.43,228.49Z"/></g></g></svg>