<svg xmlns="http://www.w3.org/2000/svg" viewBox="0 0 425.33 425.33"><defs><style>.cls-1,.cls-3{fill:none;stroke:#621457;stroke-width:9.33px;}.cls-1{stroke-miterlimit:10;}.cls-2{fill:#fff;}.cls-3{stroke-linecap:round;stroke-linejoin:round;}</style></defs><g id="Camada_2" data-name="Camada 2"><g id="Camada_1-2" data-name="Camada 1"><circle class="cls-1" cx="212.66" cy="212.67" r="208"/><path class="cls-2" d="M283.08,74.19A19.72,19.72,0,0,0,260.81,91v0L245.09,198.82,229.41,91.33a19.72,19.72,0,0,0-39,5.45l11.42,81.55a21,21,0,0,0-34.62,15.91v18.93a21,21,0,0,0-41.94,0V270c0,41.89,31.61,78.46,73.42,81.16,43.06,2.8,83.87-29.7,83.87-80.68,0-67.31,0-44.82,17.3-174A19.72,19.72,0,0,0,283.14,74.2Z"/><path class="cls-3" d="M229.31,270.49h0a35,35,0,0,0-35,35h0v10.35"/><path class="cls-3" d="M283.08,74.19A19.72,19.72,0,0,0,260.81,91v0L245.09,198.82,229.41,91.33a19.72,19.72,0,0,0-39,5.45l11.42,81.55a21,21,0,0,0-34.62,15.91v18.93a21,21,0,0,0-41.94,0V270c0,41.89,31.61,78.46,73.42,81.16,43.06,2.8,83.87-29.7,83.87-80.68,0-67.31,0-44.82,17.3-174A19.72,19.72,0,0,0,283.14,74.2Z"/><path class="cls-2" d="M146.25,192.18h0a21,21,0,0,0-21,21h0v25.6a21,21,0,0,0,21,21h0a21,21,0,0,0,21-21h0V213.14A21,21,0,0,0,146.25,192.18Z"/><path class="cls-2" d="M188.19,173.24h0a21,21,0,0,0-21,21h0v44.54a21,21,0,0,0,21,21h0a21,21,0,0,0,21-21h0V194.21A21,21,0,0,0,188.19,173.24Z"/><path class="cls-3" d="M146.25,192.18h0a21,21,0,0,0-21,21h0v25.6a21,21,0,0,0,21,21h0a21,21,0,0,0,21-21h0V213.14A21,21,0,0,0,146.25,192.18Z"/><path class="cls-3" d="M188.19,173.24h0a21,21,0,0,0-21,21h0v44.54a21,21,0,0,0,21,21h0a21,21,0,0,0,21-21h0V194.21A21,21,0,0,0,188.19,173.24Z"/><path class="cls-2" d="M282.56,270.49h0a40.93,40.93,0,0,0-40.92-40.92H177.91a10.83,10.83,0,0,0-10.84,10.83h0a30.07,30.07,0,0,0,30.07,30.08h32.17"/><path class="cls-3" d="M282.56,270.49h0a40.93,40.93,0,0,0-40.92-40.92H177.91a10.83,10.83,0,0,0-10.84,10.83h0a30.07,30.07,0,0,0,30.07,30.08h32.17"/></g></g></svg>